<svg width="35" height="35" viewBox="0 0 35 35" fill="none" xmlns="http://www.w3.org/2000/svg">
<path fill-rule="evenodd" clip-rule="evenodd" d="M17.1867 0.5C7.77577 0.5 0.146729 8.05519 0.146729 17.375C0.146729 26.6948 7.77577 34.25 17.1867 34.25C26.5976 34.25 34.2266 26.6948 34.2266 17.375C34.2266 8.05519 26.5976 0.5 17.1867 0.5ZM13.4402 8.42938C14.4096 8.38569 14.7194 8.375 17.1875 8.375H17.1847C19.6536 8.375 19.9622 8.38569 20.9316 8.42938C21.8991 8.47325 22.5599 8.62494 23.1393 8.8475C23.7376 9.07719 24.2431 9.3847 24.7486 9.88533C25.2541 10.3856 25.5647 10.8877 25.7975 11.4797C26.021 12.0519 26.1743 12.7059 26.2197 13.6641C26.2633 14.6241 26.2747 14.9308 26.2747 17.3751C26.2747 19.8194 26.2633 20.1254 26.2197 21.0854C26.1743 22.0431 26.021 22.6973 25.7975 23.2698C25.5647 23.8615 25.2541 24.3637 24.7486 24.8639C24.2437 25.3645 23.7374 25.6728 23.1398 25.9027C22.5616 26.1252 21.9005 26.2769 20.933 26.3208C19.9636 26.3645 19.6548 26.3752 17.1864 26.3752C14.7184 26.3752 14.4089 26.3645 13.4395 26.3208C12.4722 26.2769 11.8116 26.1252 11.2333 25.9027C10.636 25.6728 10.1289 25.3645 9.62399 24.8639C9.11865 24.3637 8.80814 23.8615 8.57583 23.2696C8.35128 22.6973 8.19811 22.0433 8.15361 21.0852C8.10969 20.1252 8.09871 19.8194 8.09871 17.3751C8.09871 14.9308 8.11007 14.6239 8.15342 13.6639C8.19697 12.7061 8.35033 12.0519 8.57564 11.4795C8.80852 10.8877 9.11903 10.3856 9.62455 9.88533C10.1297 9.38489 10.6367 9.07738 11.2345 8.8475C11.8123 8.62494 12.4727 8.47325 13.4402 8.42938Z" fill="black"/>
<path fill-rule="evenodd" clip-rule="evenodd" d="M16.3722 9.99737C16.5305 9.99712 16.7008 9.9972 16.8846 9.99728L17.1875 9.99737C19.614 9.99737 19.9016 10.006 20.8598 10.0491C21.7459 10.0892 22.2268 10.2359 22.5472 10.3591C22.9713 10.5222 23.2737 10.7172 23.5916 11.0322C23.9096 11.3472 24.1066 11.6472 24.2717 12.0672C24.396 12.3841 24.5443 12.8603 24.5846 13.7378C24.6282 14.6866 24.6376 14.9716 24.6376 17.3735C24.6376 19.7754 24.6282 20.0604 24.5846 21.0092C24.5441 21.8867 24.396 22.3629 24.2717 22.6798C24.1069 23.0998 23.9096 23.3989 23.5916 23.7137C23.2735 24.0287 22.9715 24.2237 22.5472 24.3868C22.2272 24.5106 21.7459 24.6568 20.8598 24.697C19.9018 24.7401 19.614 24.7495 17.1875 24.7495C14.7608 24.7495 14.4732 24.7401 13.5152 24.697C12.6291 24.6565 12.1482 24.5098 11.8276 24.3866C11.4035 24.2235 11.1006 24.0285 10.7825 23.7135C10.4644 23.3985 10.2675 23.0993 10.1024 22.6791C9.97802 22.3622 9.82977 21.8859 9.78944 21.0084C9.74589 20.0597 9.73718 19.7747 9.73718 17.3713C9.73718 14.9679 9.74589 14.6844 9.78944 13.7356C9.82996 12.8581 9.97802 12.3818 10.1024 12.0646C10.2671 11.6446 10.4644 11.3446 10.7825 11.0296C11.1006 10.7146 11.4035 10.5196 11.8276 10.3561C12.148 10.2323 12.6291 10.0861 13.5152 10.0457C14.3535 10.0082 14.6784 9.99699 16.3722 9.99512V9.99737ZM22.0386 11.4918C21.4366 11.4918 20.9481 11.975 20.9481 12.5714C20.9481 13.1676 21.4366 13.6514 22.0386 13.6514C22.6407 13.6514 23.1292 13.1676 23.1292 12.5714C23.1292 11.9751 22.6407 11.4914 22.0386 11.4914V11.4918ZM12.5204 17.3756C12.5204 14.8232 14.61 12.7537 17.1873 12.7536C19.7647 12.7536 21.8538 14.8231 21.8538 17.3756C21.8538 19.928 19.7649 21.9966 17.1875 21.9966C14.6101 21.9966 12.5204 19.928 12.5204 17.3756Z" fill="black"/>
<path d="M17.1876 14.375C18.8605 14.375 20.2169 15.7181 20.2169 17.375C20.2169 19.0318 18.8605 20.3751 17.1876 20.3751C15.5144 20.3751 14.1582 19.0318 14.1582 17.375C14.1582 15.7181 15.5144 14.375 17.1876 14.375Z" fill="black"/>
</svg>
