<svg width="35" height="35" viewBox="0 0 35 35" fill="none" xmlns="http://www.w3.org/2000/svg">
<path fill-rule="evenodd" clip-rule="evenodd" d="M17.471 0.5C8.06008 0.5 0.43103 8.05519 0.43103 17.375C0.43103 26.6948 8.06008 34.25 17.471 34.25C26.8819 34.25 34.5109 26.6948 34.5109 17.375C34.5109 8.05519 26.8819 0.5 17.471 0.5ZM8.61135 14.4766H12.473V25.9669H8.61135V14.4766ZM12.7273 10.9222C12.7023 9.7956 11.8887 8.9375 10.5677 8.9375C9.24666 8.9375 8.38301 9.7956 8.38301 10.9222C8.38301 12.0255 9.22113 12.9083 10.5176 12.9083H10.5422C11.8887 12.9083 12.7273 12.0255 12.7273 10.9222ZM21.9533 14.2068C24.4944 14.2068 26.3995 15.8494 26.3995 19.3787L26.3993 25.9669H22.5379V19.8196C22.5379 18.2755 21.9791 17.2219 20.5811 17.2219C19.5143 17.2219 18.8788 17.9322 18.5997 18.6182C18.4976 18.8641 18.4726 19.2067 18.4726 19.5501V25.9672H14.6105C14.6105 25.9672 14.6614 15.5551 14.6105 14.4769H18.4726V16.1044C18.9851 15.322 19.903 14.2068 21.9533 14.2068Z" fill="black"/>
</svg>
