<svg width="35" height="35" viewBox="0 0 35 35" fill="none" xmlns="http://www.w3.org/2000/svg">
<path fill-rule="evenodd" clip-rule="evenodd" d="M17.9023 34.25C8.49135 34.25 0.862305 26.6948 0.862305 17.375C0.862305 8.05519 8.49135 0.5 17.9023 0.5C27.3132 0.5 34.9422 8.05519 34.9422 17.375C34.9422 26.6948 27.3132 34.25 17.9023 34.25ZM18.1397 16.4279C19.5349 16.4279 26.3189 12.65 26.3189 12.65L26.3298 11.975C26.3298 11.2298 25.7191 10.625 24.9645 10.625H11.3148C10.561 10.625 9.95028 11.2298 9.95028 11.975V12.5764C9.95028 12.5764 16.8085 16.4279 18.1397 16.4279ZM9.96118 14.675C9.9605 14.675 16.8085 18.2842 18.1397 18.2842C19.599 18.2842 26.3189 14.675 26.3189 14.675L26.3298 22.775C26.3298 23.5202 25.7191 24.125 24.9645 24.125H11.3148C10.5617 24.125 9.95028 23.5202 9.95028 22.775L9.96118 14.675Z" fill="black"/>
</svg>
