<svg width="35" height="35" viewBox="0 0 35 35" fill="none" xmlns="http://www.w3.org/2000/svg">
<path fill-rule="evenodd" clip-rule="evenodd" d="M17.7554 0.5C8.3445 0.5 0.715454 8.05519 0.715454 17.375C0.715454 26.6948 8.3445 34.25 17.7554 34.25C27.1663 34.25 34.7954 26.6948 34.7954 17.375C34.7954 8.05519 27.1663 0.5 17.7554 0.5ZM24.4309 10.0662C26.5318 10.1271 27.5229 11.4764 27.4014 14.1139C27.3104 16.085 25.9204 18.7835 23.2311 22.2094C20.4511 25.7866 18.0987 27.5761 16.1753 27.5761C14.9829 27.5761 13.9744 26.4872 13.1503 24.3078C12.9371 23.5337 12.724 22.7596 12.511 21.9856C12.1741 20.762 11.8373 19.5385 11.5002 18.3148C10.8881 16.1366 10.2321 15.0463 9.52986 15.0463C9.37683 15.0463 8.84157 15.3651 7.92502 15.9998L6.96344 14.7729C7.97265 13.8951 8.96795 13.0171 9.94722 12.1379C11.2932 10.9867 12.3043 10.3807 12.9777 10.3198C14.5684 10.1682 15.5479 11.2452 15.9155 13.5507C16.3128 16.0385 16.588 17.5856 16.7422 18.1911C17.2015 20.2551 17.7064 21.2861 18.2574 21.2861C18.6849 21.2861 19.3282 20.6168 20.1856 19.2774C21.0413 17.9389 21.5001 16.9203 21.5619 16.2202C21.6843 15.065 21.2254 14.4859 20.1856 14.4859C19.696 14.4859 19.1912 14.5975 18.672 14.818C19.6772 11.5588 21.597 9.97579 24.4309 10.0662Z" fill="black"/>
</svg>
